<?xml version="1.0" encoding="UTF-8"?>
<svg version="1.1" xmlns="http://www.w3.org/2000/svg" width="512" height="512">
<path d="M0 0 C24.16837545 19.80144608 41.05791395 47.25247831 44.64111328 78.6394043 C47.41680772 111.37589307 39.79441424 143.14494434 18.52636719 168.72143555 C1.00868774 189.09126473 -20.83439382 203.11809207 -47.14794922 209.12719727 C-48.57107422 209.46364258 -48.57107422 209.46364258 -50.02294922 209.80688477 C-80.5711137 215.7377784 -112.99555069 208.84152583 -138.92431641 191.97143555 C-166.59632759 173.03415485 -183.43876744 144.98226724 -189.68774414 112.30444336 C-190.46013918 106.97184441 -190.37287146 101.63420669 -190.38818359 96.25390625 C-190.39777649 94.22620795 -190.42879726 92.19957542 -190.46044922 90.17211914 C-190.70714429 59.79301974 -177.33670997 30.77668437 -156.31201172 9.13891602 C-145.72997486 -1.22080914 -133.67746428 -8.99134732 -120.14794922 -14.87280273 C-119.08447266 -15.35233398 -118.02099609 -15.83186523 -116.92529297 -16.32592773 C-78.89649158 -32.28744741 -32.29788774 -25.41954176 0 0 Z M-70.14794922 33.12719727 C-72.47862499 36.34574952 -72.61536059 39.23210253 -72.14794922 43.12719727 C-69.06916261 48.51264576 -64.93555301 52.59963615 -60.53857422 56.93188477 C-59.81176453 57.65586456 -59.08495483 58.37984436 -58.33612061 59.12576294 C-56.02807403 61.42267107 -53.71314948 63.71250222 -51.39794922 66.00219727 C-49.82587436 67.56423416 -48.25425473 69.12672937 -46.68310547 70.68969727 C-42.8433077 74.50751876 -38.99784833 78.31956366 -35.14794922 82.12719727 C-37.0823436 82.13266571 -37.0823436 82.13266571 -39.05581665 82.13824463 C-51.20963487 82.1751874 -63.36319954 82.23295254 -75.51682472 82.31110001 C-81.76513341 82.35060735 -88.01330048 82.38278004 -94.26171875 82.39819336 C-100.29191901 82.4133382 -106.32172999 82.44774585 -112.35175705 82.49550629 C-114.65220125 82.51034238 -116.95270102 82.51823955 -119.2531929 82.51908112 C-122.47585798 82.52144572 -125.69744288 82.54848619 -128.91992188 82.58129883 C-129.87082703 82.57626846 -130.82173218 82.5712381 -131.80145264 82.5660553 C-137.55263888 82.65663987 -140.72511037 83.37471584 -145.14794922 87.12719727 C-147.25652375 89.78583471 -147.14818536 91.11420934 -147.08544922 94.56469727 C-145.96722041 98.81396675 -144.56630597 100.42431053 -141.14794922 103.12719727 C-138.3323872 104.05229573 -135.74645257 104.25996879 -132.7946167 104.28541565 C-131.93087433 104.29520447 -131.06713196 104.30499329 -130.17721558 104.31507874 C-129.23782135 104.3208342 -128.29842712 104.32658966 -127.33056641 104.33251953 C-126.3351181 104.34241913 -125.3396698 104.35231873 -124.3140564 104.36251831 C-121.02433652 104.39410122 -117.7346022 104.41887815 -114.44482422 104.44360352 C-112.16367213 104.4641758 -109.88252383 104.48517235 -107.60137939 104.50657654 C-101.59760608 104.56176877 -95.59379853 104.61119067 -89.58996582 104.65942383 C-83.46342929 104.7096596 -77.33694248 104.76533484 -71.21044922 104.82055664 C-59.18965836 104.92810339 -47.16882433 105.02955616 -35.14794922 105.12719727 C-35.82113441 105.79705154 -35.82113441 105.79705154 -36.50791931 106.48043823 C-41.16623968 111.11668474 -45.82107564 115.75640824 -50.47387695 120.39819336 C-52.21223723 122.13151585 -53.95149273 123.86394098 -55.69165039 125.59545898 C-58.18854267 128.0802615 -60.68222835 130.56824263 -63.17529297 133.05688477 C-63.95758774 133.83401825 -64.73988251 134.61115173 -65.54588318 135.41183472 C-66.26655472 136.13243073 -66.98722626 136.85302673 -67.72973633 137.59545898 C-68.36705185 138.23055389 -69.00436737 138.8656488 -69.66099548 139.51998901 C-71.86117589 141.89810477 -72.14299476 143.0842586 -72.52294922 146.37719727 C-72.04046998 151.20198961 -70.73936338 152.91784844 -67.14794922 156.12719727 C-63.4052747 157.26336632 -61.32946082 157.71031917 -57.77923584 155.95814514 C-54.72733638 153.83451908 -52.15120204 151.40294553 -49.54736328 148.76953125 C-49.01179306 148.23585938 -48.47622284 147.7021875 -47.92442322 147.15234375 C-46.16589137 145.39749904 -44.41463362 143.63558961 -42.66357422 141.87329102 C-41.44036752 140.64889156 -40.21679021 139.42486225 -38.99285889 138.20118713 C-36.4345097 135.64127681 -33.87954697 133.07805033 -31.32714844 130.51220703 C-28.05138013 127.21940452 -24.76902247 123.93326822 -21.4843483 120.64935207 C-18.96024536 118.12497766 -16.43875356 115.59800898 -13.91814423 113.07014656 C-12.70825065 111.85706654 -11.49774667 110.64459499 -10.28662872 109.43273735 C-8.59886926 107.74281663 -6.91443965 106.04964865 -5.23095703 104.35546875 C-4.72811691 103.85308182 -4.22527679 103.35069489 -3.7071991 102.83308411 C-0.57773576 99.67441019 0.68505421 98.06237808 1.47705078 93.62719727 C1.41352435 89.39927521 -0.1490797 87.57558749 -2.99829102 84.54516602 C-3.81864838 83.66844238 -4.63900574 82.79171875 -5.48422241 81.88842773 C-10.00713163 77.19996092 -14.5627817 72.54782991 -19.16748047 67.93969727 C-20.1988558 66.90509845 -21.23016034 65.87042907 -22.26139832 64.83569336 C-24.40176035 62.68940347 -26.54411726 60.54512845 -28.68774414 58.40209961 C-31.4309076 55.65903872 -34.16706813 52.90910159 -36.9016161 50.15745544 C-39.01973964 48.0282226 -41.14238319 45.90354084 -43.26633263 43.78012085 C-44.27782695 42.76744961 -45.28770739 41.75316361 -46.29590797 40.73721313 C-47.69991804 39.32340283 -49.11091862 37.91654497 -50.5222168 36.51000977 C-51.72059929 35.30948975 -51.72059929 35.30948975 -52.94319153 34.0847168 C-55.96466637 31.40206553 -58.06863832 30.24201757 -62.08544922 29.81469727 C-65.60572947 30.17390954 -67.36592739 30.96340251 -70.14794922 33.12719727 Z " fill="#202020" transform="translate(446.14794921875,279.872802734375)"/>
<path d="M0 0 C13.70489329 11.43434905 21.76001575 26.86844999 23.83984375 44.59375 C23.98381565 47.78364672 23.99687041 50.96954226 24.00097656 54.16235352 C24.00594147 55.09673752 24.01090637 56.03112152 24.01602173 56.99382019 C24.03056659 60.07010653 24.03743367 63.14634124 24.04296875 66.22265625 C24.04720982 67.8086025 24.04720982 67.8086025 24.05153656 69.42658806 C24.06650071 75.02536136 24.0757468 80.62410908 24.08007812 86.22290039 C24.08554861 91.97328986 24.10955468 97.72344087 24.13805008 103.47375584 C24.15678405 107.9239111 24.16188783 112.37401024 24.163414 116.82420158 C24.16641845 118.9422428 24.17437119 121.06028356 24.18759918 123.1782856 C24.32335116 146.59132405 20.85643983 165.13642366 4.59765625 183.06640625 C-8.22173704 195.64840336 -25.28940789 201.13761513 -42.94702148 201.01391602 C-60.69685933 200.46237236 -75.76257677 193.19456849 -88.16015625 180.59375 C-88.73378906 180.01882813 -89.30742187 179.44390625 -89.8984375 178.8515625 C-100.94196788 166.92340824 -105.30228581 151.40075477 -105.32128906 135.55615234 C-105.32625397 134.56018036 -105.33121887 133.56420837 -105.33633423 132.53805542 C-105.35090567 129.25192567 -105.35775029 125.96584422 -105.36328125 122.6796875 C-105.36903779 120.38530477 -105.37479546 118.09092204 -105.3805542 115.79653931 C-105.3910506 110.98659034 -105.39690185 106.17665802 -105.40039062 101.36669922 C-105.40586571 95.22710267 -105.42987863 89.08772897 -105.45836258 82.94820213 C-105.47706151 78.20731989 -105.48219847 73.46649049 -105.4837265 68.72557449 C-105.4867383 66.46353566 -105.49471657 64.20149744 -105.50791168 61.93949509 C-105.6288358 39.6121874 -102.49566482 21.16970262 -86.41015625 4.34375 C-62.62024048 -18.26383562 -25.99822222 -19.79592693 0 0 Z M-66.16015625 31.59375 C-69.42023099 36.84566039 -72.2694186 42.33671447 -72.30732727 48.60768127 C-72.31448257 49.42194077 -72.32163788 50.23620026 -72.32901001 51.07513428 C-72.33169891 51.96501038 -72.33438782 52.85488647 -72.3371582 53.77172852 C-72.3437294 54.71195358 -72.3503006 55.65217865 -72.35707092 56.62089539 C-72.37680862 59.73814982 -72.38846988 62.85535598 -72.3984375 65.97265625 C-72.40251303 67.03861464 -72.40658855 68.10457302 -72.41078758 69.20283318 C-72.431654 74.84884319 -72.44595118 80.49482889 -72.45532227 86.14086914 C-72.46636562 91.95909709 -72.5007402 97.77694037 -72.54049397 103.59503269 C-72.56670801 108.07934759 -72.57501855 112.56357169 -72.57860374 117.04795647 C-72.58346019 119.19164555 -72.59504715 121.33533084 -72.61364174 123.47894478 C-72.63812634 126.48960426 -72.63705059 129.49928012 -72.63012695 132.51000977 C-72.64293701 133.38571625 -72.65574707 134.26142273 -72.66894531 135.16366577 C-72.58826923 144.85339545 -69.06026161 152.60946852 -62.453125 159.61328125 C-54.35808849 166.60507598 -45.54893468 168.28114732 -35.16015625 167.59375 C-27.05939985 166.19883302 -20.2526055 161.71040786 -15.33203125 155.16015625 C-10.40287865 147.29983281 -8.85972773 140.48285634 -8.86962891 131.34472656 C-8.86291168 130.44453796 -8.85619446 129.54434937 -8.84927368 128.61688232 C-8.83035585 125.65598959 -8.82637245 122.69532433 -8.82421875 119.734375 C-8.81778591 117.66322743 -8.81105719 115.59208076 -8.80404663 113.52093506 C-8.79208896 109.18353165 -8.7883642 104.84620779 -8.78955078 100.50878906 C-8.78975374 94.97322865 -8.7624681 89.43818292 -8.72800636 83.90274429 C-8.7056774 79.62511897 -8.7017151 75.34761627 -8.70277023 71.06993866 C-8.70042267 69.0303546 -8.6916472 66.99076673 -8.6761055 64.95124054 C-8.58515205 51.78137764 -8.6924175 40.10302537 -17.390625 29.37890625 C-23.79972672 22.91321202 -31.27278414 19.33127921 -40.41015625 19.21875 C-51.1552289 19.43853558 -59.1184348 23.44090879 -66.16015625 31.59375 Z " fill="#202020" transform="translate(254.16015625,98.40625)"/>
<path d="M0 0 C12.13380807 10.52549772 20.78923629 25.37043275 22.46860886 41.51491165 C22.5728259 44.29139019 22.59332874 47.05415562 22.57568359 49.83251953 C22.58356903 51.39332245 22.58356903 51.39332245 22.59161377 52.98565674 C22.60470428 56.3890328 22.59611581 59.79193257 22.5859375 63.1953125 C22.58796107 65.57941781 22.59087486 67.96352252 22.59463501 70.34762573 C22.59904328 75.32865326 22.59267436 80.30951874 22.57861328 85.29052734 C22.56150388 91.66011482 22.57138353 98.0293235 22.58933067 104.39889717 C22.60019301 109.31638421 22.5967112 114.23378204 22.5889473 119.15127182 C22.58695304 121.49951091 22.5893772 123.84775822 22.59638596 126.1959877 C22.60404274 129.48129873 22.5923374 132.76600342 22.57568359 136.05126953 C22.58175629 137.01151031 22.58782898 137.9717511 22.59408569 138.96109009 C22.5368548 145.08506797 21.48267778 150.13199477 19.1875 155.8125 C18.57720947 155.53510986 17.96691895 155.25771973 17.33813477 154.97192383 C14.83071534 153.83295565 12.32157659 152.69781267 9.8125 151.5625 C8.94238281 151.16675781 8.07226562 150.77101562 7.17578125 150.36328125 C5.87060547 149.77353516 5.87060547 149.77353516 4.5390625 149.171875 C3.75354004 148.81577148 2.96801758 148.45966797 2.15869141 148.09277344 C-2.12991571 146.24483131 -6.4712079 144.53231829 -10.8125 142.8125 C-10.80805878 141.68434372 -10.80361755 140.55618744 -10.79904175 139.3938446 C-10.75838327 128.72807865 -10.72846181 118.06232855 -10.70887566 107.39650249 C-10.69846752 101.91396017 -10.68436286 96.43148074 -10.66162109 90.94897461 C-10.63978645 85.65160827 -10.62790906 80.35430219 -10.62274551 75.0568943 C-10.61906876 73.04243841 -10.61188928 71.02798556 -10.60103989 69.01355553 C-10.01330706 46.94379002 -10.01330706 46.94379002 -20.0625 28.0625 C-27.25085346 21.2915348 -34.991393 19.42158021 -44.6484375 19.5390625 C-53.38408935 20.29399538 -59.90143037 24.53198852 -65.8125 30.8125 C-72.53375396 39.47938011 -72.97433095 49.16322741 -72.92602539 59.70703125 C-72.92617142 60.5567601 -72.92631744 61.40648895 -72.9264679 62.28196716 C-72.92577672 65.06300498 -72.91802192 67.84397403 -72.91015625 70.625 C-72.90828924 72.56412723 -72.90686667 74.50325494 -72.90586853 76.44238281 C-72.90206564 81.52550579 -72.89225454 86.60859982 -72.88116455 91.69171143 C-72.87090236 96.88691822 -72.86636064 102.08212973 -72.86132812 107.27734375 C-72.85063013 117.45574183 -72.83358068 127.6341185 -72.8125 137.8125 C-73.40675781 137.94825439 -74.00101562 138.08400879 -74.61328125 138.22387695 C-77.34768805 138.85192937 -80.08006973 139.48840577 -82.8125 140.125 C-83.74707031 140.33833984 -84.68164062 140.55167969 -85.64453125 140.77148438 C-89.96208606 141.78293952 -94.12083312 142.85159285 -98.25 144.48046875 C-101.8125 145.8125 -101.8125 145.8125 -105.8125 145.8125 C-105.90549675 132.10328123 -105.97641523 118.39413847 -106.01974869 104.68466759 C-106.04055467 98.31765921 -106.0687442 91.95086788 -106.11425781 85.58398438 C-106.15796524 79.43072015 -106.18168957 73.27766371 -106.19200897 67.12425613 C-106.19935581 64.78569904 -106.21370155 62.44715232 -106.23542023 60.10868454 C-106.43676165 37.51573575 -103.07977802 19.73147175 -86.8125 2.8125 C-62.08392576 -19.46075481 -26.22093203 -20.150256 0 0 Z " fill="#202020" transform="translate(425.8125,99.1875)"/>
<path d="M0 0 C6.72127605 5.94957398 10.66712614 13.13199191 11.35546875 22.05859375 C11.72299581 32.38276294 10.03046506 39.62296127 3.484375 47.6796875 C-2.19619019 53.69002332 -9.52596207 57.49374376 -17.80859375 58.0703125 C-28.32810172 58.22112982 -35.60297231 56.75612522 -43.8125 49.953125 C-50.57182051 43.16839351 -53.7883194 34.96634751 -54.203125 25.4921875 C-53.91198058 15.54189872 -50.08397851 8.13217347 -43.19140625 1.14453125 C-30.76264957 -10.2228934 -13.35241027 -9.51714349 0 0 Z " fill="#202020" transform="translate(95.890625,241.1328125)"/>
</svg>
